ply
format ascii 1.0
comment Created in Blender version 5.0.0
element vertex 14
property float x
property float y
property float z
property uchar red
property uchar green
property uchar blue
property uchar alpha
property float s
property float t
element face 6
property list uchar uint vertex_indices
end_header
-0.94544256 -0.9695139 -0.99118245 254 254 254 255 0.375 0
-0.34587213 -0.26460972 -0.21572272 250 250 250 255 0.625 0
-0.25896642 0.17136762 -0.5532941 61 61 61 255 0.625 0.25
-1.0334967 0.82823867 -0.94041353 254 254 254 255 0.375 0.25
0.23516154 0.22402243 0.34707227 254 254 254 255 0.625 0.5
0.92094654 0.92322904 -1.0156245 254 254 254 255 0.375 0.5
0.23018543 -0.31716526 -0.27568883 51 51 51 255 0.625 0.75
0.7296943 -0.7479623 -1.0084696 254 254 254 255 0.375 0.75
-0.34587213 -0.26460972 -0.21572272 250 250 250 255 0.625 1
-0.94544256 -0.9695139 -0.99118245 254 254 254 255 0.375 1
-1.0334967 0.82823867 -0.94041353 254 254 254 255 0.125 0.5
-0.94544256 -0.9695139 -0.99118245 254 254 254 255 0.125 0.75
-0.25896642 0.17136762 -0.5532941 61 61 61 255 0.875 0.5
-0.34587213 -0.26460972 -0.21572272 250 250 250 255 0.875 0.75
4 0 1 2 3
4 3 2 4 5
4 5 4 6 7
4 7 6 8 9
4 10 5 7 11
4 4 12 13 6
